<!DOCTYPE svg PUBLIC "-//W3C//DTD SVG 1.1//EN" "http://www.w3.org/Graphics/SVG/1.1/DTD/svg11.dtd">
<!-- Uploaded to: SVG Repo, www.svgrepo.com, Transformed by: SVG Repo Mixer Tools -->
<svg width="800px" height="800px" viewBox="-5.5 -5.5 36.00 36.00" xmlns="http://www.w3.org/2000/svg" fill="#000000" transform="rotate(0)matrix(1, 0, 0, 1, 0, 0)" stroke="#000000" stroke-width="0.00025">
<g id="SVGRepo_bgCarrier" stroke-width="0" transform="translate(0,0), scale(1)">
<rect x="-5.5" y="-5.5" width="36.00" height="36.00" rx="18" fill="#7ed0ec" strokewidth="0"/>
</g>
<g id="SVGRepo_tracerCarrier" stroke-linecap="round" stroke-linejoin="round" stroke="#ffbe6f" stroke-width="0.55"> <defs> <style>.cls-1{fill:#e01b24;}</style> </defs> <g data-name="calendar remove" id="calendar_remove"> <path class="cls-1" d="M22.5,3H21V2a1,1,0,0,0-1-1H19a1,1,0,0,0-1,1V3H14V2a1,1,0,0,0-1-1H12a1,1,0,0,0-1,1V3H7V2A1,1,0,0,0,6,1H5A1,1,0,0,0,4,2V3H2.5A1.5,1.5,0,0,0,1,4.5v18A1.5,1.5,0,0,0,2.5,24h20A1.5,1.5,0,0,0,24,22.5V4.5A1.5,1.5,0,0,0,22.5,3ZM19,2l1,0,0,3L19,5ZM12,2l1,0V3.44s0,0,0,.06,0,0,0,.07L13,5,12,5ZM5,2,6,2,6,5,5,5ZM2.5,4H4V5A1,1,0,0,0,5,6H6A1,1,0,0,0,7,5V4h4V5a1,1,0,0,0,1,1H13a1,1,0,0,0,1-1V4h4V5a1,1,0,0,0,1,1H20a1,1,0,0,0,1-1V4h1.5a.5.5,0,0,1,.5.5V8H2V4.5A.5.5,0,0,1,2.5,4Zm20,19H2.5a.5.5,0,0,1-.5-.5V9H23V22.5A.5.5,0,0,1,22.5,23Z"/> <path class="cls-1" d="M15.83,12.12a.51.51,0,0,0-.71.05L12.5,15.23,9.88,12.17a.5.5,0,1,0-.76.66L11.84,16,9.12,19.17a.51.51,0,0,0,.05.71.51.51,0,0,0,.71-.05l2.62-3.06,2.62,3.06a.51.51,0,0,0,.71.05.51.51,0,0,0,.05-.71L13.16,16l2.72-3.17A.51.51,0,0,0,15.83,12.12Z"/> </g> </g>
<g id="SVGRepo_iconCarrier"> <defs> <style>.cls-1{fill:#e01b24;}</style> </defs> <g data-name="calendar remove" id="calendar_remove"> <path class="cls-1" d="M22.5,3H21V2a1,1,0,0,0-1-1H19a1,1,0,0,0-1,1V3H14V2a1,1,0,0,0-1-1H12a1,1,0,0,0-1,1V3H7V2A1,1,0,0,0,6,1H5A1,1,0,0,0,4,2V3H2.5A1.5,1.5,0,0,0,1,4.5v18A1.5,1.5,0,0,0,2.5,24h20A1.5,1.5,0,0,0,24,22.5V4.5A1.5,1.5,0,0,0,22.5,3ZM19,2l1,0,0,3L19,5ZM12,2l1,0V3.44s0,0,0,.06,0,0,0,.07L13,5,12,5ZM5,2,6,2,6,5,5,5ZM2.5,4H4V5A1,1,0,0,0,5,6H6A1,1,0,0,0,7,5V4h4V5a1,1,0,0,0,1,1H13a1,1,0,0,0,1-1V4h4V5a1,1,0,0,0,1,1H20a1,1,0,0,0,1-1V4h1.5a.5.5,0,0,1,.5.5V8H2V4.5A.5.5,0,0,1,2.5,4Zm20,19H2.5a.5.5,0,0,1-.5-.5V9H23V22.5A.5.5,0,0,1,22.5,23Z"/> <path class="cls-1" d="M15.83,12.12a.51.51,0,0,0-.71.05L12.5,15.23,9.88,12.17a.5.5,0,1,0-.76.66L11.84,16,9.12,19.17a.51.51,0,0,0,.05.71.51.51,0,0,0,.71-.05l2.62-3.06,2.62,3.06a.51.51,0,0,0,.71.05.51.51,0,0,0,.05-.71L13.16,16l2.72-3.17A.51.51,0,0,0,15.83,12.12Z"/> </g> </g>
</svg>